<?xml version="1.0" standalone="no"?>
<!DOCTYPE svg PUBLIC "-//W3C//DTD SVG 20010904//EN"
 "http://www.w3.org/TR/2001/REC-SVG-20010904/DTD/svg10.dtd">
<svg version="1.0" xmlns="http://www.w3.org/2000/svg"
 width="226.000000pt" height="226.000000pt" viewBox="-25 -10 276.000000 276.000000"
 preserveAspectRatio="xMidYMid meet">

<g transform="translate(0.000000,256.000000) scale(0.100000,-0.100000)"
fill="#000000" stroke="none">
<path d="M1520 2545 c-131 -42 -207 -203 -155 -328 50 -119 184 -182 307 -145
53 16 132 88 153 140 64 155 -40 327 -207 343 -33 3 -70 -1 -98 -10z"/>
<path d="M1014 1933 c3 -82 9 -199 13 -260 l6 -113 127 0 c142 0 210 15 260
57 l31 26 33 -32 c41 -39 81 -51 176 -51 89 0 134 19 167 69 27 39 29 68 9
116 -21 50 -68 75 -142 75 l-61 0 -110 114 c-137 142 -147 146 -366 146 l-150
0 7 -147z"/>
<path d="M795 1976 c-16 -8 -61 -46 -100 -85 l-69 -71 -92 0 c-78 0 -96 -3
-125 -23 -18 -12 -39 -34 -46 -47 -33 -64 2 -154 67 -177 43 -15 232 -17 280
-3 26 7 68 42 148 123 l112 114 0 50 c0 99 -88 158 -175 119z"/>
<path d="M71 1638 c-55 -29 -62 -53 -68 -219 -7 -220 10 -495 34 -551 43 -95
158 -262 247 -356 95 -101 166 -185 166 -196 0 -3 -18 -6 -40 -6 l-40 0 0
-155 0 -155 340 0 340 0 0 155 0 155 -45 0 c-36 0 -45 3 -45 18 0 9 -9 86 -20
171 -25 188 -23 185 -230 431 -80 96 -162 198 -182 225 -19 28 -44 51 -55 53
-45 7 -102 -105 -87 -171 4 -18 34 -84 67 -147 69 -133 60 -128 -51 27 -91
127 -95 139 -118 353 -16 156 -36 255 -58 298 -34 65 -104 97 -155 70z"/>
<path d="M2075 1641 c-75 -33 -104 -125 -135 -430 -7 -63 -18 -132 -26 -154
-13 -38 -166 -261 -187 -274 -6 -3 17 45 50 108 34 63 64 128 68 146 14 67
-43 178 -88 171 -12 -2 -35 -23 -51 -48 -17 -25 -102 -130 -189 -235 -88 -104
-170 -212 -184 -238 -18 -36 -29 -88 -45 -213 l-21 -164 -44 0 -43 0 0 -155 0
-155 340 0 340 0 0 155 0 155 -41 0 -40 0 18 30 c10 17 66 82 126 146 107 114
217 268 265 372 28 62 41 213 41 472 -1 199 -8 254 -40 286 -27 27 -82 39
-114 25z"/>
</g>
</svg>
