<?xml version="1.0" standalone="no"?>
<!DOCTYPE svg PUBLIC "-//W3C//DTD SVG 20010904//EN"
 "http://www.w3.org/TR/2001/REC-SVG-20010904/DTD/svg10.dtd">
<svg version="1.0" xmlns="http://www.w3.org/2000/svg"
 width="405.000000pt" height="406.000000pt" viewBox="0 0 405.000000 406.000000"
 preserveAspectRatio="xMidYMid meet">

<g transform="translate(0.000000,406.000000) scale(0.100000,-0.100000)"
fill="#000000" stroke="none">
<path d="M381 3615 l-31 -36 0 -497 c0 -377 3 -503 13 -522 15 -30 70 -60 97
-53 11 3 31 16 45 29 l25 23 0 476 0 475 1505 0 1505 0 0 -431 0 -431 -60
-106 -60 -107 0 226 0 225 -28 27 c-39 38 -82 36 -116 -4 -26 -30 -26 -31 -26
-213 l0 -182 -67 -17 c-38 -9 -72 -17 -76 -17 -4 0 -15 16 -23 36 -23 55 -11
105 42 163 24 27 44 58 44 69 0 38 -42 59 -129 65 -137 9 -181 52 -181 176 0
65 -2 71 -31 95 -39 33 -48 33 -112 -4 -94 -53 -227 -38 -279 31 -40 55 -95
109 -109 109 -29 0 -79 -41 -99 -80 -19 -38 -70 -80 -97 -80 -6 0 -15 14 -18
32 -4 18 -20 64 -36 102 -16 39 -29 72 -29 74 0 1 270 2 600 2 l600 0 0 -84
c0 -76 3 -87 26 -115 31 -37 72 -41 115 -10 l30 21 -3 145 -3 146 -28 21 c-28
21 -32 21 -752 21 -723 0 -724 0 -752 -21 -39 -30 -36 -65 20 -206 26 -64 47
-121 47 -127 0 -6 15 -48 34 -93 19 -46 43 -110 54 -143 11 -33 30 -85 42
-115 12 -30 37 -95 55 -145 133 -367 127 -355 175 -375 27 -11 43 -10 108 5
96 22 137 30 237 49 138 27 238 47 300 61 33 8 98 21 145 30 47 9 110 23 141
31 30 8 66 14 80 14 13 0 39 9 58 21 l35 21 -17 -26 c-9 -14 -35 -58 -56 -98
-39 -72 -40 -73 -93 -84 -29 -7 -96 -21 -148 -32 -52 -12 -122 -26 -155 -32
-33 -7 -89 -18 -125 -25 -168 -35 -230 -47 -292 -61 -174 -37 -207 -43 -268
-54 -36 -6 -99 -20 -140 -29 -41 -10 -106 -24 -145 -31 -93 -16 -206 -38 -280
-55 -55 -12 -149 -31 -280 -56 -27 -6 -79 -17 -115 -25 -107 -24 -395 -82
-534 -108 -57 -10 -74 -19 -98 -45 l-28 -31 0 -151 c0 -151 0 -151 -26 -172
-14 -11 -39 -38 -55 -60 l-29 -40 0 567 c0 387 -3 574 -11 588 -6 11 -26 26
-44 34 -41 17 -73 7 -104 -32 l-21 -27 0 -1091 c0 -852 3 -1096 13 -1116 7
-14 28 -33 47 -43 33 -16 127 -17 1637 -15 l1602 3 28 21 28 21 3 1739 2 1738
-27 28 -27 28 -1622 0 -1622 0 -31 -35z m1974 -1020 c28 -17 65 -28 109 -32
60 -5 68 -9 86 -37 22 -36 75 -80 108 -90 23 -8 26 -14 14 -32 -6 -11 -157
-48 -242 -60 l-35 -6 -48 129 c-46 123 -54 153 -41 153 3 0 25 -11 49 -25z
m1152 -568 c-19 -29 -36 -57 -38 -62 -13 -35 -75 -135 -84 -134 -5 0 -31 8
-57 17 l-48 17 54 95 c29 52 76 135 104 184 29 49 52 90 52 92 0 2 10 20 23
41 l22 38 3 -118 3 -118 -34 -52z m-307 28 c0 -5 -25 -50 -81 -147 -22 -36
-39 -76 -39 -88 0 -18 -4 -17 -35 14 -48 48 -69 53 -113 23 l-37 -24 -30 -188
c-16 -103 -34 -189 -40 -191 -10 -4 -139 51 -333 142 -40 19 -75 34 -78 34 -2
0 -37 16 -77 35 -39 19 -80 35 -90 35 -9 0 -34 -15 -54 -33 l-36 -33 77 -147
c42 -81 76 -150 76 -152 0 -7 -38 2 -155 37 -55 17 -156 45 -225 63 -69 18
-172 45 -230 60 -103 27 -105 27 -138 9 -38 -20 -55 -45 -46 -68 6 -14 240
-229 449 -409 55 -48 122 -109 149 -136 56 -57 62 -51 -74 -71 -41 -7 -115
-20 -165 -30 -49 -10 -119 -24 -154 -30 -73 -13 -106 -31 -115 -62 -6 -23 23
-55 159 -176 l70 -62 -253 0 -252 0 0 101 c0 81 3 105 18 123 9 12 85 84 167
160 201 187 227 226 191 294 -64 122 -222 147 -343 56 -17 -13 -35 -24 -40
-24 -4 0 -19 -9 -33 -20 -14 -11 -28 -20 -31 -20 -3 0 -11 17 -17 39 -37 123
-205 233 -359 234 l-64 1 3 85 3 84 65 14 c36 8 85 18 110 22 75 14 260 51
350 71 47 11 112 24 145 30 57 11 107 21 263 54 37 8 96 20 132 26 36 6 101
20 145 30 123 28 225 49 275 56 25 3 79 14 120 25 75 18 182 40 295 60 33 5
96 19 140 29 44 10 118 26 165 36 47 9 99 20 115 24 37 10 55 12 55 5z m147
-365 c36 -16 69 -30 74 -30 5 0 34 -9 64 -21 l57 -21 -34 -29 c-49 -42 -60
-43 -145 -14 -115 40 -113 38 -113 95 0 60 5 61 97 20z m-66 -262 c-32 -25
-41 -23 -41 11 0 29 1 30 32 19 l31 -11 -22 -19z m259 -603 l0 -605 -1505 0
-1505 0 0 383 c0 380 0 382 19 351 11 -18 35 -44 55 -59 l36 -27 0 -244 0
-244 29 -32 29 -33 1330 0 1331 0 28 21 28 21 5 497 5 497 50 39 c28 22 53 40
58 40 4 0 7 -272 7 -605z m-290 370 c0 -28 -3 -30 -32 -14 -21 11 -21 12 -3
25 27 20 35 17 35 -11z m0 -465 l0 -270 -278 0 -278 0 -50 32 c-27 18 -42 33
-34 34 181 26 230 46 230 93 0 15 -8 35 -18 44 -10 10 -33 37 -51 62 l-32 44
56 -25 c31 -13 78 -36 105 -49 65 -33 99 -32 133 3 15 15 27 35 27 43 0 7 -14
45 -30 83 -16 38 -28 72 -25 74 3 3 22 -7 42 -21 59 -40 92 -39 134 2 25 26
29 37 29 86 0 53 1 55 20 45 19 -10 20 -21 20 -280z"/>
<path d="M700 3403 c-19 -10 -40 -29 -47 -43 -10 -19 -13 -187 -13 -732 l0
-708 28 -30 c15 -17 38 -31 52 -32 40 -2 176 20 285 47 55 13 152 34 215 45
63 12 153 30 200 40 146 32 223 48 290 60 36 6 92 18 125 25 33 7 98 21 145
30 104 20 144 37 164 68 17 25 18 24 -66 242 -17 44 -46 121 -63 170 -34 91
-80 218 -175 470 -28 77 -67 180 -85 230 -48 132 -44 130 -275 130 -176 0
-190 -1 -217 -21 -38 -28 -41 -63 -8 -94 25 -24 34 -25 178 -30 l151 -5 39
-99 c37 -95 38 -101 21 -113 -54 -39 -179 -41 -252 -4 -55 28 -86 26 -123 -7
-30 -27 -30 -28 -19 -74 11 -43 10 -52 -11 -95 -21 -41 -32 -51 -79 -70 -34
-14 -77 -23 -112 -23 -46 0 -62 -5 -87 -26 -17 -14 -31 -33 -31 -42 0 -10 18
-34 40 -54 95 -90 74 -204 -50 -271 -34 -19 -46 -32 -48 -52 -4 -34 32 -75 67
-76 55 -1 126 -42 149 -86 7 -12 12 -40 12 -62 0 -38 -2 -41 -37 -49 -65 -16
-156 -33 -200 -39 l-43 -6 0 627 0 626 103 0 c80 0 110 4 136 18 51 27 57 55
22 95 l-29 32 -159 3 c-136 2 -163 0 -193 -15z m1153 -858 c5 -16 29 -79 52
-140 24 -60 45 -121 47 -134 4 -31 4 -31 -233 -71 -60 -11 -63 -10 -90 16
l-28 27 21 28 c17 23 22 44 22 100 1 71 1 71 36 88 19 9 52 39 75 68 48 62 82
68 98 18z"/>
</g>
</svg>
