<svg height="32" viewBox="0 0 32 32" width="32" xmlns="http://www.w3.org/2000/svg"><path d="m19.792 13.577c.516 0 1.054.105 1.596.322 1.671.671 1.561 2.694 1.879 3.519.658-.29 1.628-1.399 2.844-1.399.277 0 .565.058.866.194 2.039.93 2.922 2.903 2.065 4.97-.945 2.284-3.353 3.009-5.682 3.714-1.102.334-2.238.677-3.21 1.178-.089.047-.186.071-.286.071-.08 0-.161-.016-.236-.047l-.032-.015c-.17-.071-.298-.213-.354-.385-.334-1.044-.895-2.09-1.435-3.103-1.15-2.144-2.336-4.364-1.393-6.641.633-1.53 1.911-2.379 3.377-2.379zm0-1.81c-2.222 0-4.156 1.34-5.051 3.495-1.273 3.071.247 5.909 1.468 8.188.513.96 1.028 1.924 1.307 2.799.224.687.726 1.231 1.38 1.505.345.14.652.201.967.201.394 0 .786-.097 1.134-.282.806-.416 1.863-.736 2.885-1.045 2.485-.75 5.563-1.68 6.833-4.754 1.221-2.943-.007-5.948-2.986-7.308-.521-.236-1.065-.357-1.617-.357-.649 0-1.225.161-1.724.385-.378-.911-1.049-1.865-2.326-2.377-.75-.298-1.513-.45-2.27-.45zm-1.986 10.829c-1.15-2.144-2.336-4.364-1.393-6.641.858-2.069 2.894-2.892 4.976-2.057 1.671.671 1.561 2.694 1.879 3.519.588-.26 1.425-1.161 2.462-1.355.513-1.116.822-2.33.822-3.681 0-4.346-3.044-7.387-7.401-7.387-2.528 0-4.69 1.803-5.878 3.047-1.188-1.243-3.345-3.045-5.872-3.045-4.357 0-7.401 3.04-7.401 7.387 0 4.793 3.777 7.888 7.434 10.884 1.727 1.417 3.513 2.878 4.882 4.502.231.271.569.43.923.43h.071c.354 0 .693-.159.922-.43 1.194-1.412 2.7-2.7 4.21-3.946-.207-.412-.422-.822-.638-1.227z"/></svg>